<?xml version="1.0" standalone="no"?>
<!DOCTYPE svg PUBLIC "-//W3C//DTD SVG 20010904//EN"
 "http://www.w3.org/TR/2001/REC-SVG-20010904/DTD/svg10.dtd">
<svg version="1.0" xmlns="http://www.w3.org/2000/svg"
 width="200.000000pt" height="200.000000pt" viewBox="0 0 200.000000 200.000000"
 preserveAspectRatio="xMidYMid meet">

<g transform="translate(0.000000,200.000000) scale(0.100000,-0.100000)"
fill="#000000" stroke="none">
<path d="M937 1786 c-65 -18 -117 -61 -149 -126 -69 -134 1 -293 149 -336 193
-56 365 148 279 331 -49 107 -166 162 -279 131z m180 -72 c48 -38 83 -106 83
-159 0 -53 -35 -121 -83 -159 -36 -29 -45 -31 -117 -31 -72 0 -81 2 -117 31
-121 96 -105 265 32 339 21 11 49 15 97 13 57 -3 73 -8 105 -34z"/>
<path d="M629 1262 c-25 -31 -60 -78 -77 -103 -28 -42 -113 -204 -124 -239 -3
-8 -9 8 -12 35 -16 110 -22 130 -39 133 -21 4 -22 -11 -2 -154 18 -126 20
-134 37 -134 18 0 223 159 223 173 0 28 -37 14 -105 -39 -61 -48 -71 -53 -65
-33 17 57 114 226 177 309 37 50 68 95 68 100 0 27 -40 4 -81 -48z"/>
<path d="M1290 1310 c0 -5 31 -50 68 -100 63 -83 160 -252 177 -309 6 -20 -5
-15 -71 36 -72 56 -104 68 -104 39 0 -6 49 -49 110 -95 104 -79 140 -94 140
-59 0 7 7 58 15 113 20 136 19 157 -2 153 -17 -3 -24 -25 -38 -131 l-6 -48
-50 102 c-53 108 -86 161 -158 251 -41 52 -81 75 -81 48z"/>
<path d="M980 1033 l-1 -138 -32 53 c-31 51 -50 64 -60 39 -7 -18 95 -187 113
-187 18 0 120 169 113 187 -10 25 -29 12 -60 -39 l-32 -53 -1 138 c0 130 -1
137 -20 137 -19 0 -20 -7 -20 -137z"/>
<path d="M277 674 c-31 -9 -65 -31 -92 -58 -115 -116 -90 -299 54 -379 120
-68 274 -17 332 108 23 50 25 142 3 193 -46 112 -180 173 -297 136z m192 -67
c48 -32 81 -97 81 -160 0 -59 -14 -94 -53 -136 -42 -44 -84 -61 -149 -61 -162
1 -251 187 -152 318 62 81 183 98 273 39z"/>
<path d="M920 670 c-137 -46 -198 -201 -132 -331 68 -135 236 -175 355 -86
156 118 112 366 -75 422 -65 19 -80 19 -148 -5z m156 -41 c64 -19 124 -110
124 -187 0 -51 -36 -119 -83 -156 -36 -29 -45 -31 -117 -31 -72 0 -81 2 -117
31 -48 38 -83 106 -83 159 1 86 64 169 147 191 48 12 69 11 129 -7z"/>
<path d="M1595 681 c-72 -18 -142 -77 -169 -143 -22 -51 -20 -143 3 -193 58
-125 212 -176 332 -108 66 37 105 90 121 163 34 167 -122 321 -287 281z m156
-68 c62 -36 107 -131 93 -196 -24 -113 -99 -172 -209 -165 -108 7 -175 73
-183 178 -12 165 156 267 299 183z"/>
</g>
</svg>
