<?xml version="1.0" standalone="no"?>
<!DOCTYPE svg PUBLIC "-//W3C//DTD SVG 20010904//EN"
 "http://www.w3.org/TR/2001/REC-SVG-20010904/DTD/svg10.dtd">
<svg version="1.0" xmlns="http://www.w3.org/2000/svg"
 width="512.000000pt" height="512.000000pt" viewBox="0 0 512.000000 512.000000"
 preserveAspectRatio="xMidYMid meet">
<metadata>
Created by potrace 1.16, written by Peter Selinger 2001-2019
</metadata>
<g transform="translate(0.000000,512.000000) scale(0.100000,-0.100000)"
fill="#000000" stroke="none">
<path d="M2325 5084 c-16 -2 -73 -9 -125 -15 -573 -65 -1088 -318 -1481 -726
-480 -499 -742 -1192 -715 -1888 30 -778 365 -1438 956 -1884 136 -103 240
-166 409 -251 192 -96 314 -140 384 -140 109 0 93 -31 406 795 362 950 334
872 327 925 -9 64 -42 106 -106 136 -132 61 -167 82 -226 139 -101 99 -154
228 -154 378 0 250 156 469 385 539 98 31 252 31 350 0 229 -70 385 -289 385
-539 0 -211 -110 -388 -295 -476 -44 -21 -96 -46 -115 -55 -19 -9 -45 -33 -58
-52 -44 -66 -41 -76 282 -925 163 -429 304 -790 312 -803 48 -74 137 -81 284
-22 406 162 747 400 1007 704 533 623 716 1519 478 2347 -217 753 -747 1354
-1442 1633 -315 127 -580 176 -968 181 -137 2 -263 1 -280 -1z m605 -349 c839
-130 1477 -675 1746 -1490 133 -407 147 -841 38 -1265 -138 -536 -472 -983
-954 -1274 -95 -57 -279 -151 -285 -144 -5 5 -465 1219 -465 1226 0 4 26 23
57 42 76 46 199 169 251 250 53 81 95 190 117 299 21 101 16 301 -9 396 -87
327 -329 571 -641 646 -126 31 -324 31 -449 0 -278 -67 -488 -253 -603 -531
-105 -253 -77 -585 69 -810 52 -81 175 -204 251 -250 31 -19 57 -38 57 -42 0
-8 -460 -1221 -465 -1226 -8 -8 -256 124 -350 185 -140 92 -204 143 -323 257
-334 322 -543 736 -618 1226 -24 160 -25 473 0 630 132 857 681 1529 1456
1784 140 46 341 89 490 105 126 14 505 6 630 -14z"/>
</g>
</svg>
