<?xml version="1.0" standalone="no"?>
<!DOCTYPE svg PUBLIC "-//W3C//DTD SVG 20010904//EN"
 "http://www.w3.org/TR/2001/REC-SVG-20010904/DTD/svg10.dtd">
<svg version="1.0" xmlns="http://www.w3.org/2000/svg"
 width="512.000000pt" height="512.000000pt" viewBox="0 0 512.000000 512.000000"
 preserveAspectRatio="xMidYMid meet">

<g transform="translate(0.000000,512.000000) scale(0.100000,-0.100000)"
fill="#000000" stroke="none">
<path d="M756 5049 l-26 -20 0 -1069 0 -1069 -166 -3 c-160 -3 -166 -4 -185
-27 -18 -22 -19 -49 -19 -700 0 -568 2 -680 14 -697 13 -17 31 -19 183 -24
l168 -5 5 -667 c5 -623 6 -668 23 -685 17 -17 103 -18 1812 -18 l1794 0 23 23
23 23 3 664 2 665 164 0 c153 0 164 1 182 21 18 20 19 46 19 705 0 642 -1 684
-18 701 -15 16 -40 18 -182 21 l-165 3 0 407 0 407 -684 683 -684 682 -1130 0
c-1127 0 -1129 0 -1156 -21z m2174 -769 c0 -627 0 -640 20 -660 20 -20 33 -20
660 -20 l640 0 0 -355 0 -355 -1685 0 -1685 0 0 1015 0 1015 1025 0 1025 0 0
-640z m685 0 l530 -530 -533 0 -532 0 0 530 c0 292 1 530 3 530 1 0 241 -238
532 -530z m1013 -2117 l2 -573 -2060 0 -2060 0 0 575 0 575 2058 -2 2057 -3 3
-572z m-378 -1333 l0 -610 -1685 0 -1685 0 0 610 0 610 1685 0 1685 0 0 -610z"/>
<path d="M760 2495 c-12 -32 -14 -634 -1 -653 5 -9 28 -12 77 -10 l69 3 3 133
3 132 40 0 c58 0 87 -34 138 -162 45 -112 51 -118 116 -118 44 0 75 11 75 25
0 29 -111 280 -134 303 l-24 25 31 21 c17 12 42 37 55 56 20 30 23 44 20 97
-5 77 -26 109 -94 143 -45 23 -62 25 -206 28 l-158 4 -10 -27z m295 -130 c29
-28 31 -54 10 -94 -18 -35 -32 -41 -101 -41 l-54 0 0 80 0 80 60 0 c51 0 65
-4 85 -25z"/>
<path d="M1371 2507 c-8 -11 -11 -106 -9 -343 l3 -329 207 -3 c203 -2 207 -2
219 19 13 26 5 89 -13 101 -7 4 -70 8 -140 8 l-128 0 0 80 0 80 124 0 c135 0
136 0 136 61 0 65 -8 69 -140 69 l-120 0 0 70 0 69 138 3 137 3 0 60 0 60
-201 3 c-162 2 -203 0 -213 -11z"/>
<path d="M1912 2508 c-9 -9 -12 -98 -12 -340 0 -313 1 -328 19 -338 25 -13 72
-13 105 0 l26 10 0 207 0 208 91 -140 c178 -276 181 -279 220 -289 20 -5 52
-6 73 -2 l36 7 -2 342 -3 342 -65 0 -65 0 -5 -207 -5 -208 -129 201 c-71 110
-137 204 -147 210 -25 13 -123 11 -137 -3z"/>
<path d="M2632 2507 c-9 -11 -12 -98 -10 -343 l3 -329 169 -3 c190 -3 235 6
298 58 21 18 51 59 70 98 31 63 33 72 33 177 0 132 -18 192 -75 258 -23 26
-61 54 -92 68 -47 21 -70 24 -219 27 -135 3 -167 1 -177 -11z m329 -140 c55
-36 74 -86 74 -197 0 -160 -42 -209 -187 -218 l-78 -5 0 222 0 221 79 0 c64 0
84 -4 112 -23z"/>
<path d="M3321 2507 c-8 -11 -11 -106 -9 -343 l3 -329 210 0 210 0 3 48 c5 74
-1 77 -149 77 l-129 0 0 80 0 79 123 3 122 3 3 54 c2 37 -1 57 -10 62 -7 5
-64 9 -125 9 l-113 0 0 70 0 69 138 3 137 3 0 60 0 60 -201 3 c-162 2 -203 0
-213 -11z"/>
<path d="M3862 2507 c-9 -11 -12 -98 -10 -343 l3 -329 75 0 75 0 3 133 3 132
40 0 c58 0 87 -34 138 -162 45 -114 50 -118 123 -118 45 0 68 8 68 25 0 29
-111 280 -134 303 l-24 25 31 21 c17 12 42 37 55 56 20 30 23 44 20 97 -5 77
-26 109 -94 143 -45 23 -62 25 -205 28 -126 3 -157 1 -167 -11z m289 -136 c32
-25 31 -82 -1 -116 -20 -22 -32 -25 -87 -25 l-63 0 0 80 0 80 64 0 c47 0 70
-5 87 -19z"/>
</g>
</svg>
